<?xml version="1.0" encoding="UTF-8"?>
<!DOCTYPE svg PUBLIC "-//W3C//DTD SVG 1.1//EN" "http://www.w3.org/Graphics/SVG/1.1/DTD/svg11.dtd">
<!-- Creator: CorelDRAW -->
<svg xmlns="http://www.w3.org/2000/svg" xml:space="preserve" width="8.4666mm" height="8.4666mm" version="1.1" style="shape-rendering:geometricPrecision; text-rendering:geometricPrecision; image-rendering:optimizeQuality; fill-rule:evenodd; clip-rule:evenodd"
viewBox="0 0 846.66 846.66"
 xmlns:xlink="http://www.w3.org/1999/xlink"
 xmlns:xodm="http://www.corel.com/coreldraw/odm/2003">
 <defs>
  <style type="text/css">
   <![CDATA[
    .fil0 {fill:#0559AC;fill-rule:nonzero}
   ]]>
  </style>
 </defs>
 <g id="Layer_x0020_1">
  <metadata id="CorelCorpID_0Corel-Layer"/>
  <g id="_105553283357312">
   <g>
    <path class="fil0" d="M695.55 138.98l-32.73 0 0 -54.55 -54.55 0 0 54.55 -360.03 0 0 -54.55 -54.55 0 0 54.55 -32.73 0c-45.12,0 -81.83,36.71 -81.83,81.83l0 480.04c0,45.12 36.71,81.83 81.83,81.83l534.59 0c45.12,0 81.83,-36.71 81.83,-81.83l0 -480.04c0,-45.12 -36.71,-81.83 -81.83,-81.83zm27.28 561.87c0,15.04 -12.24,27.28 -27.28,27.28l-534.59 0c-15.04,0 -27.28,-12.24 -27.28,-27.28l0 -360.03 589.15 0 0 360.03zm0 -414.58l-589.15 0 0 -65.46c0,-15.04 12.24,-27.28 27.28,-27.28l32.73 0 0 54.55 54.55 0 0 -54.55 360.03 0 0 54.55 54.55 0 0 -54.55 32.73 0c15.04,0 27.28,12.24 27.28,27.28l0 65.46z"/>
   </g>
   <g>
    <rect class="fil0" x="182.78" y="398.1" width="54.55" height="54.55"/>
   </g>
   <g>
    <rect class="fil0" x="291.88" y="398.1" width="54.55" height="54.55"/>
   </g>
   <g>
    <rect class="fil0" x="400.98" y="398.1" width="54.55" height="54.55"/>
   </g>
   <g>
    <rect class="fil0" x="510.08" y="398.1" width="54.55" height="54.55"/>
   </g>
   <g>
    <rect class="fil0" x="619.18" y="398.1" width="54.55" height="54.55"/>
   </g>
   <g>
    <rect class="fil0" x="182.78" y="507.2" width="54.55" height="54.55"/>
   </g>
   <g>
    <rect class="fil0" x="291.88" y="507.2" width="54.55" height="54.55"/>
   </g>
   <g>
    <rect class="fil0" x="400.98" y="507.2" width="54.55" height="54.55"/>
   </g>
   <g>
    <rect class="fil0" x="510.08" y="507.2" width="54.55" height="54.55"/>
   </g>
   <g>
    <rect class="fil0" x="182.78" y="616.3" width="54.55" height="54.55"/>
   </g>
   <g>
    <rect class="fil0" x="291.88" y="616.3" width="54.55" height="54.55"/>
   </g>
   <g>
    <rect class="fil0" x="400.98" y="616.3" width="54.55" height="54.55"/>
   </g>
   <g>
    <rect class="fil0" x="510.08" y="616.3" width="54.55" height="54.55"/>
   </g>
   <g>
    <rect class="fil0" x="619.18" y="507.2" width="54.55" height="54.55"/>
   </g>
  </g>
 </g>
</svg>
