<?xml version="1.0" encoding="UTF-8"?>
<!DOCTYPE svg PUBLIC "-//W3C//DTD SVG 1.1//EN" "http://www.w3.org/Graphics/SVG/1.1/DTD/svg11.dtd">
<!-- Creator: CorelDRAW -->
<svg xmlns="http://www.w3.org/2000/svg" xml:space="preserve" width="8.4666mm" height="8.4666mm" version="1.1" style="shape-rendering:geometricPrecision; text-rendering:geometricPrecision; image-rendering:optimizeQuality; fill-rule:evenodd; clip-rule:evenodd"
viewBox="0 0 846.66 846.66"
 xmlns:xlink="http://www.w3.org/1999/xlink"
 xmlns:xodm="http://www.corel.com/coreldraw/odm/2003">
 <defs>
  <style type="text/css">
   <![CDATA[
    .str0 {stroke:#0559AC;stroke-width:1.69;stroke-miterlimit:22.9256}
    .fil0 {fill:#0559AC;fill-rule:nonzero}
   ]]>
  </style>
 </defs>
 <g id="Layer_x0020_1">
  <metadata id="CorelCorpID_0Corel-Layer"/>
  <g id="_105553517811520">
   <g>
    <g>
     <path class="fil0 str0" d="M697.79 139.16c-152.65,-147.43 -394.65,-147.43 -547.3,0 -151.14,156.48 -146.81,405.85 9.68,556.99 152.65,147.43 394.66,147.43 547.31,0 151.13,-156.48 146.8,-405.85 -9.69,-556.99zm-8.83 538.48l-0.13 -0.13c-143.64,143.51 -376.42,143.4 -519.94,-0.24 -143.51,-143.64 -143.4,-376.43 0.24,-519.94 143.64,-143.51 376.43,-143.4 519.94,0.24 68.93,68.99 107.63,162.55 107.56,260.08 0.01,97.51 -38.72,191.03 -107.67,259.99z"/>
    </g>
   </g>
   <g>
    <g>
     <path class="fil0 str0" d="M650.23 529.79l-73.79 -73.53c-16.75,-16.79 -43.94,-16.82 -60.73,-0.07 -0.02,0.02 -0.04,0.04 -0.07,0.07l-42.28 42.28c-3.2,3.2 -8.24,3.65 -11.95,1.05 -23.14,-16.17 -44.8,-34.37 -64.73,-54.36 -17.85,-17.81 -34.27,-37 -49.11,-57.38 -2.69,-3.66 -2.29,-8.74 0.92,-11.95l43.33 -43.33c16.73,-16.76 16.73,-43.9 0,-60.66l-73.79 -73.8c-17,-16.25 -43.79,-16.25 -60.79,0l-23.37 23.38c-35.3,34.9 -47.9,86.72 -32.57,133.93 11.44,34.54 27.62,67.32 48.06,97.42 18.4,27.6 39.52,53.29 63.03,76.69 25.56,25.74 53.87,48.59 84.42,68.14 33.59,21.92 70.47,38.32 109.25,48.58 9.97,2.46 20.19,3.7 30.46,3.68 35.19,-0.22 68.86,-14.38 93.62,-39.39l20.09 -20.09c16.73,-16.76 16.73,-43.9 0,-60.66zm-18.6 42.75c-0.01,0.02 -0.03,0.04 -0.05,0.05l0.13 -0.39 -20.09 20.09c-25.81,26.14 -63.4,36.89 -99.13,28.36 -36,-9.63 -70.22,-24.97 -101.37,-45.43 -28.94,-18.49 -55.75,-40.11 -79.96,-64.47 -22.28,-22.11 -42.29,-46.39 -59.75,-72.48 -19.09,-28.07 -34.2,-58.65 -44.9,-90.86 -12.27,-37.85 -2.1,-79.38 26.26,-107.28l23.37 -23.37c6.5,-6.53 17.06,-6.55 23.58,-0.05 0.02,0.02 0.04,0.03 0.06,0.05l73.79 73.79c6.53,6.5 6.55,17.06 0.05,23.59 -0.02,0.01 -0.03,0.03 -0.05,0.05l-43.33 43.33c-12.43,12.3 -14,31.84 -3.68,45.96 15.67,21.5 33.02,41.74 51.87,60.53 21.01,21.11 43.86,40.31 68.28,57.38 14.1,9.84 33.22,8.18 45.43,-3.94l41.88 -42.54c6.5,-6.53 17.06,-6.55 23.58,-0.06 0.02,0.02 0.04,0.04 0.06,0.06l73.92 74.05c6.53,6.5 6.55,17.05 0.05,23.58z"/>
    </g>
   </g>
   <g>
   </g>
   <g>
   </g>
   <g>
   </g>
   <g>
   </g>
   <g>
   </g>
   <g>
   </g>
   <g>
   </g>
   <g>
   </g>
   <g>
   </g>
   <g>
   </g>
   <g>
   </g>
   <g>
   </g>
   <g>
   </g>
   <g>
   </g>
   <g>
   </g>
  </g>
 </g>
</svg>
