<?xml version="1.0" encoding="UTF-8"?>
<!DOCTYPE svg PUBLIC "-//W3C//DTD SVG 1.1//EN" "http://www.w3.org/Graphics/SVG/1.1/DTD/svg11.dtd">
<!-- Creator: CorelDRAW -->
<svg xmlns="http://www.w3.org/2000/svg" xml:space="preserve" width="8.4666mm" height="8.4666mm" version="1.1" style="shape-rendering:geometricPrecision; text-rendering:geometricPrecision; image-rendering:optimizeQuality; fill-rule:evenodd; clip-rule:evenodd"
viewBox="0 0 846.66 846.66"
 xmlns:xlink="http://www.w3.org/1999/xlink"
 xmlns:xodm="http://www.corel.com/coreldraw/odm/2003">
 <defs>
  <style type="text/css">
   <![CDATA[
    .fil0 {fill:#666666;fill-rule:nonzero}
   ]]>
  </style>
 </defs>
 <g id="Layer_x0020_1">
  <metadata id="CorelCorpID_0Corel-Layer"/>
  <g id="_105553212317120">
   <path class="fil0" d="M467.4 409.01l218.4 -218.4c7.69,-7.69 7.69,-20.15 0,-27.84 -7.69,-7.69 -20.16,-7.69 -27.85,0l-218.39 218.39 -218.4 -218.39c-7.68,-7.69 -20.15,-7.69 -27.84,0 -7.69,7.69 -7.69,20.15 0,27.84l218.4 218.4 -218.4 218.39c-7.69,7.69 -7.69,20.16 0,27.84 3.85,3.85 8.88,5.77 13.92,5.77 5.04,0 10.08,-1.92 13.93,-5.77l218.39 -218.39 218.39 218.39c3.85,3.85 8.89,5.77 13.93,5.77 5.03,0 10.07,-1.92 13.92,-5.77 7.69,-7.68 7.69,-20.15 0,-27.84l-218.4 -218.39z"/>
  </g>
 </g>
</svg>
