<?xml version="1.0" encoding="UTF-8"?>
<!DOCTYPE svg PUBLIC "-//W3C//DTD SVG 1.1//EN" "http://www.w3.org/Graphics/SVG/1.1/DTD/svg11.dtd">
<!-- Creator: CorelDRAW -->
<svg xmlns="http://www.w3.org/2000/svg" xml:space="preserve" width="8.4666mm" height="8.4666mm" version="1.1" style="shape-rendering:geometricPrecision; text-rendering:geometricPrecision; image-rendering:optimizeQuality; fill-rule:evenodd; clip-rule:evenodd"
viewBox="0 0 846.66 846.66"
 xmlns:xlink="http://www.w3.org/1999/xlink"
 xmlns:xodm="http://www.corel.com/coreldraw/odm/2003">
 <defs>
  <style type="text/css">
   <![CDATA[
    .fil0 {fill:#E31F25;fill-rule:nonzero}
    .fil1 {fill:#0559AC;fill-rule:nonzero}
   ]]>
  </style>
 </defs>
 <g id="Layer_x0020_1">
  <metadata id="CorelCorpID_0Corel-Layer"/>
  <g id="_105553447252928">
   <path class="fil0" d="M713.36 565.12c-3.08,-3.09 -7.26,-4.82 -11.62,-4.82 -4.36,0 -8.55,1.73 -11.63,4.82l-48.46 48.47 -51.28 -51.27c-6.42,-6.42 -16.83,-6.42 -23.25,0 -6.42,6.42 -6.42,16.82 0,23.24l51.27 51.28 -51.27 51.27c-3.09,3.08 -4.82,7.26 -4.82,11.62 0,4.37 1.73,8.55 4.82,11.63 3.1,3.12 7.32,4.84 11.71,4.78 4.37,-0.01 8.57,-1.73 11.71,-4.78l51.27 -51.27 48.47 48.47c3.09,3.11 7.32,4.84 11.7,4.77 4.38,-0.01 8.58,-1.72 11.71,-4.77 3.09,-3.08 4.83,-7.27 4.83,-11.63 0,-4.36 -1.74,-8.54 -4.83,-11.62l-48.8 -48.47 48.47 -48.47c3.09,-3.08 4.82,-7.27 4.82,-11.63 0,-4.36 -1.73,-8.54 -4.82,-11.62l0 0zm0 0z"/>
   <path class="fil1" d="M234.42 421.02l255.55 0c9.1,0 16.48,-7.38 16.48,-16.48 0,-9.11 -7.38,-16.49 -16.48,-16.49l-255.55 0c-9.11,0 -16.49,7.38 -16.49,16.49 0,9.1 7.38,16.48 16.49,16.48l0 0zm0 0z"/>
   <path class="fil1" d="M387.41 495.22l-152.99 0c-9.11,0 -16.49,7.38 -16.49,16.48 0,9.11 7.38,16.49 16.49,16.49l152.99 0c9.1,0 16.49,-7.38 16.49,-16.49 0,-9.1 -7.39,-16.48 -16.49,-16.48l0 0zm0 0z"/>
   <path class="fil1" d="M673.63 458.61l0 -284.89c-0.01,-45.53 -36.92,-82.42 -82.44,-82.44l-67.6 0 0 -31.49c0,-9.11 -7.37,-16.48 -16.48,-16.48 -9.11,0 -16.49,7.37 -16.49,16.48l0 31.49 -224.22 0 0 -31.49c0,-9.11 -7.38,-16.48 -16.49,-16.48 -9.1,0 -16.49,7.37 -16.49,16.48l0 31.49 -67.59 0c-45.52,0.02 -82.42,36.91 -82.44,82.44l0 446.63c0.02,45.52 36.92,82.42 82.44,82.44l305.18 0c31.72,81.25 116.79,128.41 202.51,112.27 85.71,-16.13 147.82,-90.99 147.83,-178.22 0.16,-88.54 -63.64,-162.4 -147.72,-178.23l0 0zm-507.63 -334.35l67.59 0 0 31.49c0,9.1 7.38,16.48 16.49,16.48 9.1,0 16.49,-7.38 16.49,-16.48l0 -31.49 224.22 0 0 31.49c0,9.1 7.38,16.48 16.49,16.48 9.1,0 16.48,-7.38 16.48,-16.48l0 -31.49 67.6 0c27.28,0.07 49.38,22.17 49.46,49.46l0 39.9 -524.29 0 0 -39.9c0.02,-27.31 22.16,-49.44 49.47,-49.46l0 0zm0 545.55c-27.29,-0.07 -49.39,-22.18 -49.47,-49.46l0 -373.92 524.12 0 0 209.05 -0.49 0c-53.85,0.08 -104.88,24.05 -139.33,65.44 -34.45,41.39 -48.75,95.93 -39.06,148.89l-295.77 0zm474.16 115.41c-81.95,0 -148.39,-66.43 -148.39,-148.38 0,-81.95 66.44,-148.38 148.39,-148.38 81.95,0 148.38,66.43 148.38,148.38 -0.12,81.9 -66.48,148.26 -148.38,148.38zm0 0z"/>
  </g>
 </g>
</svg>
