<?xml version="1.0" encoding="UTF-8"?>
<!DOCTYPE svg PUBLIC "-//W3C//DTD SVG 1.1//EN" "http://www.w3.org/Graphics/SVG/1.1/DTD/svg11.dtd">
<!-- Creator: CorelDRAW -->
<svg xmlns="http://www.w3.org/2000/svg" xml:space="preserve" width="8.4666mm" height="8.4666mm" version="1.1" style="shape-rendering:geometricPrecision; text-rendering:geometricPrecision; image-rendering:optimizeQuality; fill-rule:evenodd; clip-rule:evenodd"
viewBox="0 0 846.66 846.66"
 xmlns:xlink="http://www.w3.org/1999/xlink"
 xmlns:xodm="http://www.corel.com/coreldraw/odm/2003">
 <defs>
  <style type="text/css">
   <![CDATA[
    .str0 {stroke:#0559AC;stroke-width:1.69;stroke-miterlimit:22.9256}
    .fil0 {fill:#0559AC;fill-rule:nonzero}
   ]]>
  </style>
 </defs>
 <g id="Layer_x0020_1">
  <metadata id="CorelCorpID_0Corel-Layer"/>
  <g id="_105553517419712">
   <path class="fil0 str0" d="M662.73 211.26l-457.85 0c-7.97,0 -14.43,7.07 -14.43,15.79 0,8.72 6.46,15.79 14.43,15.79l457.85 0c7.97,0 14.43,-7.07 14.43,-15.79 0,-8.72 -6.46,-15.79 -14.43,-15.79l0 0z"/>
   <path class="fil0 str0" d="M662.73 331.97l-457.85 0c-7.97,0 -14.43,7.08 -14.43,15.8 0,8.72 6.46,15.79 14.43,15.79l457.85 0c7.97,0 14.43,-7.07 14.43,-15.79 0,-8.72 -6.46,-15.8 -14.43,-15.8z"/>
   <path class="fil0 str0" d="M662.73 452.69l-457.85 0c-7.97,0 -14.43,7.07 -14.43,15.8 0,8.72 6.46,15.79 14.43,15.79l457.85 0c7.97,0 14.43,-7.07 14.43,-15.79 0,-8.73 -6.46,-15.8 -14.43,-15.8z"/>
   <path class="fil0 str0" d="M708.56 73.15l-549.51 0c-46.27,0 -83.91,41.2 -83.91,91.85l0 378.19c0,50.65 37.64,91.85 83.91,91.85l385.15 0c4.12,0 7.95,2.03 10.5,5.57l124.38 172.35c4.9,6.79 12.06,10.49 19.55,10.49 2.78,0 5.61,-0.51 8.39,-1.57 10.25,-3.89 16.87,-14.08 16.87,-25.96l0 -162.45c38.9,-7.95 68.58,-45.6 68.58,-90.28l0 -378.19c0,-50.65 -37.64,-91.85 -83.91,-91.85l0 0zm55.06 470.04c0,32.8 -24.38,59.83 -54.35,60.24 -7.89,0.11 -14.24,7.15 -14.24,15.8l0 164.87 -117.68 -163.07c-8.06,-11.17 -20.14,-17.57 -33.15,-17.57l-385.15 0c-30.36,0 -55.06,-27.04 -55.06,-60.27l0 -378.19c0,-33.24 24.7,-60.27 55.06,-60.27l549.51 0c30.36,0 55.06,27.04 55.06,60.27l0 378.19z"/>
  </g>
 </g>
</svg>
