<?xml version="1.0" encoding="UTF-8"?>
<!DOCTYPE svg PUBLIC "-//W3C//DTD SVG 1.1//EN" "http://www.w3.org/Graphics/SVG/1.1/DTD/svg11.dtd">
<!-- Creator: CorelDRAW -->
<svg xmlns="http://www.w3.org/2000/svg" xml:space="preserve" width="8.4666mm" height="8.4666mm" version="1.1" style="shape-rendering:geometricPrecision; text-rendering:geometricPrecision; image-rendering:optimizeQuality; fill-rule:evenodd; clip-rule:evenodd"
viewBox="0 0 846.66 846.66"
 xmlns:xlink="http://www.w3.org/1999/xlink"
 xmlns:xodm="http://www.corel.com/coreldraw/odm/2003">
 <defs>
  <style type="text/css">
   <![CDATA[
    .str0 {stroke:white;stroke-width:7.62;stroke-miterlimit:22.9256}
    .fil0 {fill:gray;fill-rule:nonzero}
   ]]>
  </style>
 </defs>
 <g id="Layer_x0020_1">
  <metadata id="CorelCorpID_0Corel-Layer"/>
  <g id="_105553204388704">
   <path class="fil0 str0" d="M776.14 180.86l-168.26 0c-10.53,-82.37 -81.09,-146.25 -166.28,-146.25l-18.33 0c-85.19,0 -155.75,63.88 -166.29,146.25l-168.25 0c-11.81,0 -21.39,9.58 -21.39,21.39l0 450.04c0,62.04 50.47,112.51 112.51,112.51l505.17 0c62.04,0 112.51,-50.47 112.51,-112.51 0,-8.74 0,-440.05 0,-450.04 0,-11.81 -9.58,-21.39 -21.39,-21.39l0 0zm-352.87 -103.47l18.33 0c61.56,0 112.85,44.78 123.03,103.47l-264.38 0c10.17,-58.69 61.46,-103.47 123.02,-103.47l0 0zm-313.14 146.26l644.62 0 0 57.9 -644.62 0 0 -57.9zm644.62 428.64c0,38.45 -31.28,69.73 -69.73,69.73l-505.17 -0.01c-38.45,0 -69.73,-31.27 -69.73,-69.72l0 -327.96 79.46 0 0 54.56c0,11.82 9.57,21.4 21.39,21.4 11.81,0 21.39,-9.58 21.39,-21.4l0 -54.56 400.15 0 0 54.56c0,11.82 9.58,21.4 21.39,21.4 11.82,0 21.4,-9.58 21.4,-21.4l0 -54.56 79.45 0 0 327.96z"/>
   <path class="fil0 str0" d="M432.44 367.5c-85.84,0 -155.68,69.84 -155.68,155.67 0,85.84 69.84,155.67 155.68,155.67 85.83,0 155.67,-69.83 155.67,-155.67 0,-85.83 -69.84,-155.67 -155.67,-155.67zm0 268.56c-62.25,0 -112.89,-50.64 -112.89,-112.89 0,-62.24 50.64,-112.88 112.89,-112.88 62.24,0 112.88,50.64 112.88,112.88 0,62.25 -50.64,112.89 -112.88,112.89z"/>
   <path class="fil0 str0" d="M481.15 501.78l-27.32 0 0 -27.32c0,-11.81 -9.58,-21.39 -21.39,-21.39 -11.82,0 -21.4,9.58 -21.4,21.39l0 27.32 -27.31 0c-11.82,0 -21.4,9.58 -21.4,21.39 0,11.82 9.58,21.4 21.4,21.4l27.31 0 0 27.31c0,11.82 9.58,21.4 21.4,21.4 11.81,0 21.39,-9.58 21.39,-21.4l0 -27.31 27.32 0c11.81,0 21.39,-9.58 21.39,-21.4 0,-11.81 -9.58,-21.39 -21.39,-21.39l0 0z"/>
  </g>
 </g>
</svg>
