<?xml version="1.0" encoding="UTF-8"?>
<!DOCTYPE svg PUBLIC "-//W3C//DTD SVG 1.1//EN" "http://www.w3.org/Graphics/SVG/1.1/DTD/svg11.dtd">
<!-- Creator: CorelDRAW -->
<svg xmlns="http://www.w3.org/2000/svg" xml:space="preserve" width="8.4666mm" height="8.4666mm" version="1.1" style="shape-rendering:geometricPrecision; text-rendering:geometricPrecision; image-rendering:optimizeQuality; fill-rule:evenodd; clip-rule:evenodd"
viewBox="0 0 846.66 846.66"
 xmlns:xlink="http://www.w3.org/1999/xlink"
 xmlns:xodm="http://www.corel.com/coreldraw/odm/2003">
 <defs>
  <style type="text/css">
   <![CDATA[
    .fil0 {fill:#727272;fill-rule:nonzero}
   ]]>
  </style>
 </defs>
 <g id="Layer_x0020_1">
  <metadata id="CorelCorpID_0Corel-Layer"/>
  <g id="_105553443229952">
   <g>
    <g>
     <g>
      <path class="fil0" d="M429.12 29.97c-164.06,0 -297.53,133.47 -297.53,297.53 0,54.01 24.23,112.1 25.24,114.55 7.83,18.57 23.26,47.41 34.39,64.32l204 309.1c8.35,12.67 20.71,19.93 33.9,19.93 13.2,0 25.56,-7.26 33.9,-19.92l204.02 -309.11c11.15,-16.91 26.57,-45.75 34.39,-64.32 1.02,-2.43 25.22,-60.52 25.22,-114.55 0,-164.06 -133.46,-297.53 -297.53,-297.53zm240.04 398.5c-6.98,16.64 -21.35,43.47 -31.35,58.63l-204.01 309.11c-4.03,6.11 -5.31,6.11 -9.33,0l-204.02 -309.11c-9.99,-15.16 -24.36,-42.01 -31.35,-58.65 -0.29,-0.72 -22.5,-54.19 -22.5,-100.95 0,-144.76 117.77,-262.53 262.52,-262.53 144.76,0 262.53,117.77 262.53,262.53 0,46.83 -22.26,100.44 -22.49,100.97z"/>
      <path class="fil0" d="M429.12 170c-86.86,0 -157.51,70.67 -157.51,157.52 0,86.84 70.65,157.51 157.51,157.51 86.87,0 157.52,-70.67 157.52,-157.51 0,-86.85 -70.65,-157.52 -157.52,-157.52zm0 280.03c-67.54,0 -122.51,-54.96 -122.51,-122.51 0,-67.56 54.97,-122.52 122.51,-122.52 67.54,0 122.52,54.96 122.52,122.52 0,67.55 -54.98,122.51 -122.52,122.51z"/>
     </g>
    </g>
   </g>
   <g>
   </g>
   <g>
   </g>
   <g>
   </g>
   <g>
   </g>
   <g>
   </g>
   <g>
   </g>
   <g>
   </g>
   <g>
   </g>
   <g>
   </g>
   <g>
   </g>
   <g>
   </g>
   <g>
   </g>
   <g>
   </g>
   <g>
   </g>
   <g>
   </g>
  </g>
 </g>
</svg>
