<?xml version="1.0" encoding="UTF-8"?>
<!DOCTYPE svg PUBLIC "-//W3C//DTD SVG 1.1//EN" "http://www.w3.org/Graphics/SVG/1.1/DTD/svg11.dtd">
<!-- Creator: CorelDRAW -->
<svg xmlns="http://www.w3.org/2000/svg" xml:space="preserve" width="8.4666mm" height="8.4666mm" version="1.1" style="shape-rendering:geometricPrecision; text-rendering:geometricPrecision; image-rendering:optimizeQuality; fill-rule:evenodd; clip-rule:evenodd"
viewBox="0 0 846.66 846.66"
 xmlns:xlink="http://www.w3.org/1999/xlink"
 xmlns:xodm="http://www.corel.com/coreldraw/odm/2003">
 <defs>
  <style type="text/css">
   <![CDATA[
    .str0 {stroke:white;stroke-width:4.23;stroke-miterlimit:22.9256}
    .fil0 {fill:gray;fill-rule:nonzero}
   ]]>
  </style>
 </defs>
 <g id="Layer_x0020_1">
  <metadata id="CorelCorpID_0Corel-Layer"/>
  <g id="_105553212495712">
   <path class="fil0 str0" d="M432.93 395.55c48.58,0 90.64,-17.42 125.02,-51.8 34.36,-34.37 51.79,-76.42 51.79,-125.01 0,-48.56 -17.42,-90.62 -51.8,-125.01 -34.37,-34.36 -76.43,-51.78 -125.01,-51.78 -48.58,0 -90.63,17.42 -125,51.79 -34.37,34.37 -51.8,76.43 -51.8,125 0,48.59 17.43,90.65 51.8,125.02 34.38,34.36 76.44,51.79 125,51.79zm-94.58 -271.39c26.37,-26.38 57.31,-39.2 94.58,-39.2 37.27,0 68.22,12.82 94.6,39.2 26.37,26.37 39.19,57.32 39.19,94.58 0,37.28 -12.82,68.22 -39.19,94.59 -26.38,26.38 -57.33,39.2 -94.6,39.2 -37.26,0 -68.2,-12.82 -94.58,-39.2 -26.38,-26.37 -39.21,-57.31 -39.21,-94.59 0,-37.26 12.83,-68.21 39.21,-94.58zm0 0z"/>
   <path class="fil0 str0" d="M742.3 606.41c-0.99,-14.31 -3,-29.91 -5.95,-46.39 -2.98,-16.6 -6.82,-32.29 -11.41,-46.63 -4.75,-14.83 -11.19,-29.47 -19.17,-43.5 -8.28,-14.56 -18,-27.24 -28.91,-37.67 -11.41,-10.91 -25.37,-19.69 -41.53,-26.09 -16.09,-6.37 -33.93,-9.6 -53.01,-9.6 -7.49,0 -14.74,3.08 -28.74,12.19 -8.61,5.62 -18.68,12.11 -29.93,19.3 -9.62,6.13 -22.64,11.87 -38.73,17.06 -15.7,5.08 -31.64,7.66 -47.38,7.66 -15.72,0 -31.66,-2.58 -47.37,-7.66 -16.07,-5.19 -29.11,-10.93 -38.71,-17.05 -11.13,-7.12 -21.22,-13.62 -29.96,-19.31 -13.98,-9.12 -21.23,-12.19 -28.72,-12.19 -19.09,0 -36.92,3.23 -53.01,9.6 -16.14,6.39 -30.11,15.17 -41.53,26.1 -10.91,10.44 -20.64,23.11 -28.9,37.66 -7.97,14.03 -14.42,28.67 -19.17,43.5 -4.59,14.35 -8.43,30.03 -11.41,46.63 -2.95,16.46 -4.95,32.07 -5.94,46.4 -0.98,14.02 -1.47,28.61 -1.47,43.35 0,38.32 12.18,69.34 36.2,92.22 23.72,22.57 55.11,34.02 93.29,34.02l353.45 0c38.17,0 69.56,-11.45 93.28,-34.02 24.03,-22.86 36.21,-53.9 36.21,-92.23 0,-14.79 -0.5,-29.38 -1.48,-43.35l0 0zm-64.39 104.41c-15.67,14.92 -36.48,22.17 -63.62,22.17l-353.45 0c-27.15,0 -47.96,-7.25 -63.63,-22.16 -15.37,-14.64 -22.84,-34.61 -22.84,-61.06 0,-13.75 0.45,-27.34 1.36,-40.37 0.88,-12.8 2.69,-26.85 5.37,-41.78 2.65,-14.74 6.02,-28.58 10.03,-41.11 3.85,-12.01 9.1,-23.91 15.61,-35.37 6.21,-10.92 13.35,-20.29 21.24,-27.84 7.38,-7.06 16.67,-12.84 27.63,-17.17 10.13,-4.01 21.51,-6.21 33.87,-6.54 1.51,0.8 4.19,2.33 8.54,5.16 8.84,5.77 19.03,12.34 30.3,19.54 12.7,8.1 29.07,15.41 48.62,21.72 19.99,6.47 40.37,9.75 60.61,9.75 20.23,0 40.62,-3.28 60.6,-9.74 19.57,-6.33 35.93,-13.63 48.65,-21.74 11.53,-7.37 21.43,-13.76 30.28,-19.53 4.34,-2.82 7.03,-4.36 8.53,-5.16 12.37,0.33 23.75,2.53 33.89,6.54 10.95,4.33 20.25,10.12 27.62,17.17 7.89,7.55 15.03,16.92 21.24,27.85 6.52,11.45 11.77,23.35 15.61,35.35 4.02,12.55 7.4,26.38 10.04,41.12 2.68,14.96 4.49,29.01 5.38,41.78l0 0.01c0.91,12.99 1.37,26.57 1.37,40.36 0,26.45 -7.47,46.42 -22.85,61.05l0 0zm0 0z"/>
  </g>
 </g>
</svg>
