<?xml version="1.0" encoding="UTF-8"?>
<!DOCTYPE svg PUBLIC "-//W3C//DTD SVG 1.1//EN" "http://www.w3.org/Graphics/SVG/1.1/DTD/svg11.dtd">
<!-- Creator: CorelDRAW -->
<svg xmlns="http://www.w3.org/2000/svg" xml:space="preserve" width="8.4666mm" height="8.4666mm" version="1.1" style="shape-rendering:geometricPrecision; text-rendering:geometricPrecision; image-rendering:optimizeQuality; fill-rule:evenodd; clip-rule:evenodd"
viewBox="0 0 846.66 846.66"
 xmlns:xlink="http://www.w3.org/1999/xlink"
 xmlns:xodm="http://www.corel.com/coreldraw/odm/2003">
 <defs>
  <style type="text/css">
   <![CDATA[
    .fil0 {fill:#0559AC;fill-rule:nonzero}
   ]]>
  </style>
 </defs>
 <g id="Layer_x0020_1">
  <metadata id="CorelCorpID_0Corel-Layer"/>
  <g id="_105553441973024">
   <g>
    <g>
     <path class="fil0" d="M797.4 398.93c-12.59,0 -22.8,10.21 -22.8,22.8 0,189.43 -154.11,343.54 -343.53,343.54 -189.43,0 -343.54,-154.11 -343.54,-343.54 0,-189.42 154.11,-343.53 343.54,-343.53 57.76,0 113.94,14.34 164.1,41.67l-28.5 28.5c-6.53,6.52 -8.48,16.33 -4.95,24.85 3.53,8.52 11.84,14.08 21.07,14.08l109.1 0c12.59,0 22.8,-10.21 22.8,-22.8l0 -109.1c0,-9.23 -5.56,-17.54 -14.08,-21.07 -8.52,-3.53 -18.33,-1.58 -24.85,4.95l-47.14 47.14c-59.73,-35.26 -127.63,-53.82 -197.55,-53.82 -103.95,0 -201.67,40.48 -275.17,113.97 -73.49,73.5 -113.97,171.22 -113.97,275.16 0,103.95 40.48,201.66 113.97,275.16 73.5,73.5 171.22,113.98 275.17,113.98 103.94,0 201.66,-40.48 275.16,-113.98 73.49,-73.5 113.97,-171.22 113.97,-275.16 0,-12.59 -10.21,-22.8 -22.8,-22.8z"/>
    </g>
   </g>
   <g>
    <g>
     <path class="fil0" d="M577.6 398.93l-123.73 0 0 -123.73c0,-12.59 -10.21,-22.8 -22.8,-22.8 -12.6,0 -22.8,10.21 -22.8,22.8l0 146.53c0,12.59 10.2,22.8 22.8,22.8l146.53 0c12.59,0 22.8,-10.21 22.8,-22.8 0,-12.59 -10.21,-22.8 -22.8,-22.8z"/>
    </g>
   </g>
   <g>
   </g>
   <g>
   </g>
   <g>
   </g>
   <g>
   </g>
   <g>
   </g>
   <g>
   </g>
   <g>
   </g>
   <g>
   </g>
   <g>
   </g>
   <g>
   </g>
   <g>
   </g>
   <g>
   </g>
   <g>
   </g>
   <g>
   </g>
   <g>
   </g>
  </g>
 </g>
</svg>
