<?xml version="1.0" encoding="UTF-8"?>
<!DOCTYPE svg PUBLIC "-//W3C//DTD SVG 1.1//EN" "http://www.w3.org/Graphics/SVG/1.1/DTD/svg11.dtd">
<!-- Creator: CorelDRAW -->
<svg xmlns="http://www.w3.org/2000/svg" xml:space="preserve" width="8.4666mm" height="8.4666mm" version="1.1" style="shape-rendering:geometricPrecision; text-rendering:geometricPrecision; image-rendering:optimizeQuality; fill-rule:evenodd; clip-rule:evenodd"
viewBox="0 0 846.66 846.66"
 xmlns:xlink="http://www.w3.org/1999/xlink"
 xmlns:xodm="http://www.corel.com/coreldraw/odm/2003">
 <defs>
  <style type="text/css">
   <![CDATA[
    .fil0 {fill:black;fill-rule:nonzero}
   ]]>
  </style>
 </defs>
 <g id="Layer_x0020_1">
  <metadata id="CorelCorpID_0Corel-Layer"/>
  <g id="_105553211591552">
   <g>
    <g>
     <path class="fil0" d="M766.27 719.45l-197.47 -197.47c41.02,-45.54 66.23,-105.59 66.23,-171.56 0,-141.65 -115.25,-256.9 -256.9,-256.9 -141.65,0 -256.9,115.25 -256.9,256.9 0,141.66 115.25,256.9 256.9,256.9 65.97,0 126.01,-25.21 171.55,-66.22l197.48 197.47c2.64,2.64 6.1,3.96 9.56,3.96 3.45,0 6.91,-1.32 9.56,-3.96 5.28,-5.28 5.28,-13.84 -0.01,-19.12zm-388.14 -139.17c-126.73,0 -229.86,-103.11 -229.86,-229.86 0,-126.74 103.13,-229.85 229.86,-229.85 126.73,0 229.85,103.11 229.85,229.85 0,126.75 -103.12,229.86 -229.85,229.86z"/>
    </g>
   </g>
   <g>
   </g>
   <g>
   </g>
   <g>
   </g>
   <g>
   </g>
   <g>
   </g>
   <g>
   </g>
   <g>
   </g>
   <g>
   </g>
   <g>
   </g>
   <g>
   </g>
   <g>
   </g>
   <g>
   </g>
   <g>
   </g>
   <g>
   </g>
   <g>
   </g>
  </g>
 </g>
</svg>
