<?xml version="1.0" encoding="UTF-8"?>
<!DOCTYPE svg PUBLIC "-//W3C//DTD SVG 1.1//EN" "http://www.w3.org/Graphics/SVG/1.1/DTD/svg11.dtd">
<!-- Creator: CorelDRAW -->
<svg xmlns="http://www.w3.org/2000/svg" xml:space="preserve" width="8.4666mm" height="8.4666mm" version="1.1" style="shape-rendering:geometricPrecision; text-rendering:geometricPrecision; image-rendering:optimizeQuality; fill-rule:evenodd; clip-rule:evenodd"
viewBox="0 0 846.66 846.66"
 xmlns:xlink="http://www.w3.org/1999/xlink"
 xmlns:xodm="http://www.corel.com/coreldraw/odm/2003">
 <defs>
  <style type="text/css">
   <![CDATA[
    .str0 {stroke:white;stroke-width:0.17;stroke-miterlimit:22.9256}
    .fil0 {fill:gray;fill-rule:nonzero}
   ]]>
  </style>
 </defs>
 <g id="Layer_x0020_1">
  <metadata id="CorelCorpID_0Corel-Layer"/>
  <path class="fil0 str0" d="M432.02 55.83c-203.66,0 -369.34,165.68 -369.34,369.34 0,203.66 165.68,369.35 369.34,369.35 203.66,0 369.35,-165.69 369.35,-369.35 0,-203.66 -165.69,-369.34 -369.35,-369.34zm0 709.14c-187.36,0 -339.79,-152.43 -339.79,-339.8 0,-187.36 152.43,-339.79 339.79,-339.79 187.37,0 339.8,152.43 339.8,339.79 0,187.37 -152.43,339.8 -339.8,339.8zm0 0z"/>
  <path class="fil0 str0" d="M446.84 372.09l0 -191.42c0,-8.16 -6.61,-14.77 -14.77,-14.77 -8.16,0 -14.77,6.61 -14.77,14.77l0 191.39c-23.35,6.5 -40.63,27.72 -40.63,53.11 0,9.9 2.82,19.07 7.39,27.12l-113.27 113.13c-5.78,5.76 -5.78,15.12 -0.02,20.89 2.89,2.89 6.67,4.33 10.46,4.33 3.78,0 7.55,-1.44 10.44,-4.32l113.29 -113.15c8.04,4.55 17.19,7.36 27.06,7.36 30.53,0 55.36,-24.83 55.36,-55.36 0,-25.35 -17.24,-46.56 -40.54,-53.08zm-14.82 78.89c-14.23,0 -25.81,-11.57 -25.81,-25.81 0,-14.23 11.58,-25.81 25.81,-25.81 14.24,0 25.81,11.58 25.81,25.81 0,14.24 -11.57,25.81 -25.81,25.81zm0 0z"/>
 </g>
</svg>
